<svg width="1390" height="1140" viewBox="0 0 1390 1140" fill="none" xmlns="http://www.w3.org/2000/svg">
<rect width="648" height="483" transform="translate(365 363)" fill="#110915"/>
<g filter="url(#filter0_f_9_39)">
<ellipse cx="695" cy="570" rx="295" ry="170" fill="#D9D9D9"/>
</g>
<path d="M406.455 582.636V579L435.727 564.091V569.909L413.273 580.727L413.455 580.364V581.273L413.273 580.909L435.727 591.727V597.545L406.455 582.636ZM477.915 582.636L448.642 597.545V591.727L471.097 580.909L470.915 581.273V580.364L471.097 580.727L448.642 569.909V564.091L477.915 579V582.636ZM511.08 538.091L492.33 607.75H486.193L504.943 538.091H511.08ZM519.936 599V540.818H555.05V547.068H526.982V566.727H553.232V572.977H526.982V592.75H555.504V599H519.936ZM566.839 599V555.364H573.317V562.182H573.885C574.794 559.852 576.262 558.044 578.288 556.756C580.315 555.449 582.749 554.795 585.589 554.795C588.468 554.795 590.864 555.449 592.777 556.756C594.709 558.044 596.214 559.852 597.294 562.182H597.749C598.866 559.928 600.542 558.138 602.777 556.812C605.012 555.468 607.692 554.795 610.817 554.795C614.718 554.795 617.91 556.017 620.391 558.46C622.872 560.884 624.112 564.663 624.112 569.795V599H617.408V569.795C617.408 566.576 616.527 564.275 614.766 562.892C613.004 561.509 610.93 560.818 608.544 560.818C605.476 560.818 603.099 561.746 601.413 563.602C599.728 565.439 598.885 567.769 598.885 570.591V599H592.067V569.114C592.067 566.633 591.262 564.634 589.652 563.119C588.042 561.585 585.968 560.818 583.43 560.818C581.688 560.818 580.059 561.282 578.544 562.21C577.048 563.138 575.836 564.426 574.908 566.074C573.999 567.703 573.544 569.587 573.544 571.727V599H566.839ZM659.78 599V540.818H666.484V562.295H667.053C667.545 561.538 668.227 560.572 669.098 559.398C669.988 558.205 671.257 557.144 672.905 556.216C674.571 555.269 676.825 554.795 679.666 554.795C683.34 554.795 686.579 555.714 689.382 557.551C692.185 559.388 694.373 561.992 695.945 565.364C697.517 568.735 698.303 572.712 698.303 577.295C698.303 581.917 697.517 585.922 695.945 589.312C694.373 592.684 692.195 595.297 689.411 597.153C686.626 598.991 683.416 599.909 679.78 599.909C676.977 599.909 674.732 599.445 673.047 598.517C671.361 597.57 670.064 596.5 669.155 595.307C668.246 594.095 667.545 593.091 667.053 592.295H666.257V599H659.78ZM666.371 577.182C666.371 580.477 666.854 583.384 667.82 585.903C668.786 588.403 670.196 590.364 672.053 591.784C673.909 593.186 676.181 593.886 678.871 593.886C681.674 593.886 684.013 593.148 685.888 591.67C687.782 590.174 689.202 588.167 690.149 585.648C691.115 583.11 691.598 580.288 691.598 577.182C691.598 574.114 691.125 571.348 690.178 568.886C689.25 566.405 687.839 564.445 685.945 563.006C684.07 561.547 681.712 560.818 678.871 560.818C676.143 560.818 673.852 561.509 671.996 562.892C670.14 564.256 668.738 566.169 667.791 568.631C666.844 571.074 666.371 573.924 666.371 577.182ZM708.558 599V555.364H715.036V561.955H715.49C716.286 559.795 717.725 558.044 719.808 556.699C721.892 555.354 724.24 554.682 726.854 554.682C727.346 554.682 727.962 554.691 728.7 554.71C729.439 554.729 729.998 554.758 730.376 554.795V561.614C730.149 561.557 729.628 561.472 728.814 561.358C728.018 561.225 727.176 561.159 726.286 561.159C724.164 561.159 722.27 561.604 720.604 562.494C718.956 563.366 717.649 564.578 716.683 566.131C715.736 567.665 715.263 569.417 715.263 571.386V599H708.558ZM755.291 599.909C751.087 599.909 747.46 598.981 744.411 597.125C741.38 595.25 739.041 592.636 737.393 589.284C735.765 585.913 734.95 581.992 734.95 577.523C734.95 573.053 735.765 569.114 737.393 565.705C739.041 562.277 741.333 559.606 744.268 557.693C747.223 555.761 750.67 554.795 754.609 554.795C756.882 554.795 759.126 555.174 761.342 555.932C763.558 556.689 765.575 557.92 767.393 559.625C769.212 561.311 770.661 563.545 771.74 566.33C772.82 569.114 773.359 572.542 773.359 576.614V579.455H739.723V573.659H766.541C766.541 571.197 766.049 569 765.064 567.068C764.098 565.136 762.715 563.612 760.916 562.494C759.136 561.377 757.034 560.818 754.609 560.818C751.939 560.818 749.628 561.481 747.678 562.807C745.746 564.114 744.259 565.818 743.217 567.92C742.176 570.023 741.655 572.277 741.655 574.682V578.545C741.655 581.841 742.223 584.634 743.359 586.926C744.515 589.199 746.115 590.932 748.161 592.125C750.206 593.299 752.583 593.886 755.291 593.886C757.053 593.886 758.643 593.64 760.064 593.148C761.503 592.636 762.744 591.879 763.786 590.875C764.827 589.852 765.632 588.583 766.2 587.068L772.678 588.886C771.996 591.083 770.85 593.015 769.24 594.682C767.63 596.33 765.642 597.617 763.274 598.545C760.907 599.455 758.246 599.909 755.291 599.909ZM817.912 555.364L801.776 599H794.957L778.821 555.364H786.094L798.139 590.136H798.594L810.639 555.364H817.912ZM843.494 599.909C839.29 599.909 835.663 598.981 832.614 597.125C829.583 595.25 827.244 592.636 825.597 589.284C823.968 585.913 823.153 581.992 823.153 577.523C823.153 573.053 823.968 569.114 825.597 565.705C827.244 562.277 829.536 559.606 832.472 557.693C835.426 555.761 838.873 554.795 842.812 554.795C845.085 554.795 847.33 555.174 849.545 555.932C851.761 556.689 853.778 557.92 855.597 559.625C857.415 561.311 858.864 563.545 859.943 566.33C861.023 569.114 861.562 572.542 861.562 576.614V579.455H827.926V573.659H854.744C854.744 571.197 854.252 569 853.267 567.068C852.301 565.136 850.919 563.612 849.119 562.494C847.339 561.377 845.237 560.818 842.812 560.818C840.142 560.818 837.831 561.481 835.881 562.807C833.949 564.114 832.462 565.818 831.42 567.92C830.379 570.023 829.858 572.277 829.858 574.682V578.545C829.858 581.841 830.426 584.634 831.562 586.926C832.718 589.199 834.318 590.932 836.364 592.125C838.409 593.299 840.786 593.886 843.494 593.886C845.256 593.886 846.847 593.64 848.267 593.148C849.706 592.636 850.947 591.879 851.989 590.875C853.03 589.852 853.835 588.583 854.403 587.068L860.881 588.886C860.199 591.083 859.053 593.015 857.443 594.682C855.833 596.33 853.845 597.617 851.477 598.545C849.11 599.455 846.449 599.909 843.494 599.909ZM872.08 582.636V579L901.352 564.091V569.909L878.898 580.727L879.08 580.364V581.273L878.898 580.909L901.352 591.727V597.545L872.08 582.636ZM929.176 550.273L914.176 606H909.267L924.267 550.273H929.176ZM966.352 582.636L937.08 597.545V591.727L959.534 580.909L959.352 581.273V580.364L959.534 580.727L937.08 569.909V564.091L966.352 579V582.636Z" fill="#040404"/>
<defs>
<filter id="filter0_f_9_39" x="0" y="0" width="1390" height="1140" filterUnits="userSpaceOnUse" color-interpolation-filters="sRGB">
<feFlood flood-opacity="0" result="BackgroundImageFix"/>
<feBlend mode="normal" in="SourceGraphic" in2="BackgroundImageFix" result="shape"/>
<feGaussianBlur stdDeviation="200" result="effect1_foregroundBlur_9_39"/>
</filter>
</defs>
</svg>
